<mxfile host="app.diagrams.net" agent="Mozilla/5.0 (Windows NT 10.0; Win64; x64) AppleWebKit/537.36 (KHTML, like Gecko) Chrome/127.0.0.0 Safari/537.36 Edg/127.0.0.0" version="24.7.7">
  <diagram name="Page-1" id="b8JUELFfQysVxpn5o_FC">
    <mxGraphModel>
      <root>
        <mxCell id="0" />
        <mxCell id="1" parent="0" />
        <mxCell id="2" value="" style="rhombus;strokeWidth=2;whiteSpace=wrap;" vertex="1" parent="1">
          <mxGeometry x="79" y="155" width="28" height="28" as="geometry" />
        </mxCell>
        <mxCell id="3" value="" style="ellipse;fillColor=strokeColor;" vertex="1" parent="1">
          <mxGeometry x="86" y="8" width="14" height="14" as="geometry" />
        </mxCell>
        <mxCell id="4" value="IsPositive" style="rounded=1;absoluteArcSize=1;arcSize=14;whiteSpace=wrap;strokeWidth=2;" vertex="1" parent="1">
          <mxGeometry x="52" y="72" width="81" height="33" as="geometry" />
        </mxCell>
        <mxCell id="5" value="False" style="rounded=1;absoluteArcSize=1;arcSize=14;whiteSpace=wrap;strokeWidth=2;" vertex="1" parent="1">
          <mxGeometry x="17" y="252" width="52" height="33" as="geometry" />
        </mxCell>
        <mxCell id="6" value="True" style="rounded=1;absoluteArcSize=1;arcSize=14;whiteSpace=wrap;strokeWidth=2;" vertex="1" parent="1">
          <mxGeometry x="119" y="252" width="47" height="33" as="geometry" />
        </mxCell>
        <mxCell id="7" value="" style="curved=1;startArrow=none;;exitX=0.51;exitY=1;entryX=0.51;entryY=0;" edge="1" parent="1" source="3" target="4">
          <mxGeometry relative="1" as="geometry">
            <Array as="points" />
          </mxGeometry>
        </mxCell>
        <mxCell id="8" value="" style="curved=1;startArrow=none;;exitX=0.51;exitY=1.01;entryX=0.5;entryY=0.01;" edge="1" parent="1" source="4" target="2">
          <mxGeometry relative="1" as="geometry">
            <Array as="points" />
          </mxGeometry>
        </mxCell>
        <mxCell id="9" value="if n &amp;lt; 0" style="curved=1;startArrow=none;;exitX=0;exitY=1;entryX=0.51;entryY=-0.01;" edge="1" parent="1" source="2" target="5">
          <mxGeometry relative="1" as="geometry">
            <Array as="points">
              <mxPoint x="43" y="218" />
            </Array>
          </mxGeometry>
        </mxCell>
        <mxCell id="10" value="if n &gt;= 0" style="curved=1;startArrow=none;;exitX=1;exitY=1;entryX=0.51;entryY=-0.01;" edge="1" parent="1" source="2" target="6">
          <mxGeometry relative="1" as="geometry">
            <Array as="points">
              <mxPoint x="143" y="218" />
            </Array>
          </mxGeometry>
        </mxCell>
      </root>
    </mxGraphModel>
  </diagram>
</mxfile>
